<?xml version="1.0" standalone="no"?>
<!DOCTYPE svg PUBLIC "-//W3C//DTD SVG 20010904//EN"
 "http://www.w3.org/TR/2001/REC-SVG-20010904/DTD/svg10.dtd">
<svg version="1.0" xmlns="http://www.w3.org/2000/svg"
 width="166.000000pt" height="143.000000pt" viewBox="0 0 166.000000 143.000000"
 preserveAspectRatio="xMidYMid meet">

<g transform="translate(0.000000,143.000000) scale(0.100000,-0.100000)"
fill="#000000" stroke="none">
<path d="M1086 1190 c-196 -96 -372 -93 -574 9 -86 44 -94 42 -86 -17 4 -30
-2 -91 -15 -169 -12 -67 -21 -136 -21 -155 0 -32 19 -113 34 -150 6 -13 -4
-25 -46 -52 -62 -40 -129 -107 -152 -153 -24 -48 -22 -217 3 -276 11 -25 29
-50 40 -56 12 -7 108 -11 259 -11 192 0 241 3 245 14 3 7 -5 44 -18 82 -30 89
-84 141 -173 167 -103 30 -152 88 -152 180 0 60 15 73 54 44 48 -35 83 -47
140 -47 55 0 103 -25 150 -79 27 -29 40 -27 89 18 57 52 77 61 137 61 49 0
120 26 135 50 3 5 15 10 26 10 17 0 19 -7 19 -60 0 -102 -34 -143 -148 -181
-50 -16 -78 -33 -108 -64 -43 -45 -78 -126 -72 -167 l3 -23 243 -3 243 -2 28
27 c54 55 66 218 23 315 -27 61 -85 124 -149 160 -52 29 -62 44 -44 64 5 5 15
36 22 70 11 53 10 72 -6 145 -10 46 -21 132 -24 190 l-6 107 -99 -48z m-390
-216 c19 -9 49 -37 67 -63 82 -119 -3 -281 -148 -281 -95 0 -175 75 -183 173
-3 46 0 58 28 100 18 26 49 56 69 67 45 24 121 25 167 4z m394 -4 c76 -39 112
-146 76 -231 -15 -36 -56 -79 -93 -98 -34 -17 -110 -13 -153 9 -118 60 -125
238 -13 315 48 32 126 34 183 5z m-232 -299 c23 -28 42 -53 42 -56 0 -7 -54
-55 -77 -68 -15 -9 -91 36 -100 60 -4 11 73 111 87 113 3 0 24 -22 48 -49z"/>
<path d="M584 856 c-51 -23 -61 -90 -19 -131 40 -41 92 -29 121 26 20 39 5 83
-37 104 -33 18 -26 18 -65 1z"/>
<path d="M975 859 c-32 -18 -45 -40 -45 -76 0 -43 38 -83 79 -83 42 0 85 52
77 94 -11 55 -69 88 -111 65z"/>
</g>
</svg>
